<svg width="1322" height="1140" viewBox="0 0 1322 1140" fill="none" xmlns="http://www.w3.org/2000/svg">
<path fill-rule="evenodd" clip-rule="evenodd" d="M950 293C950 351.651 932.767 406.277 903.089 452.09L720.644 768.094L675.67 690.197L847.254 381.255L846.624 381.267C859.128 354.45 866.111 324.541 866.111 293C866.111 177.511 772.489 83.8888 657 83.8888C541.511 83.8888 447.889 177.511 447.889 293C447.889 327.506 456.247 360.061 471.049 388.749L470.754 388.755L493.673 429H397.408C376.072 388.357 364 342.088 364 293C364 131.181 495.181 0 657 0C818.819 0 950 131.181 950 293Z" fill="url(#paint0_linear_202_2100)"/>
<path fill-rule="evenodd" clip-rule="evenodd" d="M255.151 485.556C306.225 456.723 362.266 444.876 416.752 448.198L781.624 451.728L735.899 529.186L382.515 531.643L382.836 532.185C353.336 534.48 323.857 543.102 296.39 558.608C195.82 615.382 160.316 742.935 217.091 843.505C273.865 944.075 401.418 979.579 501.988 922.805C532.037 905.841 556.277 882.56 573.983 855.567L574.133 855.82L597.913 816.078L645.236 899.907C620.333 938.467 585.975 971.725 543.228 995.857C402.312 1075.41 223.589 1025.66 144.039 884.745C64.4883 743.829 114.235 565.106 255.151 485.556Z" fill="url(#paint1_linear_202_2100)"/>
<path fill-rule="evenodd" clip-rule="evenodd" d="M774.443 993.038C723.65 963.712 684.959 921.475 660.122 872.866L477.678 556.862L567.626 556.863L749.385 859.93L749.689 859.378C766.661 883.615 789.072 904.618 816.387 920.388C916.404 978.132 1044.29 943.864 1102.04 843.848C1159.78 743.832 1125.52 615.941 1025.5 558.197C995.615 540.943 963.243 531.904 930.998 530.379L931.14 530.121L884.827 529.847L932.96 446.479C978.825 448.323 1024.93 461.003 1067.44 485.547C1207.58 566.457 1255.6 745.653 1174.69 885.792C1093.78 1025.93 914.583 1073.95 774.443 993.038Z" fill="url(#paint2_linear_202_2100)"/>
<defs>
<linearGradient id="paint0_linear_202_2100" x1="439.402" y1="549.844" x2="895.367" y2="416.523" gradientUnits="userSpaceOnUse">
<stop stop-color="#60A5FA"/>
<stop offset="0.404697" stop-color="#2563EB"/>
</linearGradient>
<linearGradient id="paint1_linear_202_2100" x1="729.826" y1="803.931" x2="389.575" y2="472.408" gradientUnits="userSpaceOnUse">
<stop stop-color="#60A5FA"/>
<stop offset="0.404697" stop-color="#2563EB"/>
</linearGradient>
<linearGradient id="paint2_linear_202_2100" x1="807.309" y1="422.425" x2="694.786" y2="883.962" gradientUnits="userSpaceOnUse">
<stop stop-color="#60A5FA"/>
<stop offset="0.404697" stop-color="#2563EB"/>
</linearGradient>
</defs>
</svg>
